<mxfile host="app.diagrams.net" modified="2021-07-16T21:05:57.739Z" agent="5.0 (Windows NT 10.0; Win64; x64) AppleWebKit/537.36 (KHTML, like Gecko) Chrome/91.0.4472.124 Safari/537.36 Edg/91.0.864.67" etag="GIPshko7y6vfQGYD4Nw8" version="14.8.6" type="github">
  <diagram id="R2lEEEUBdFMjLlhIrx00" name="Page-1">
    <mxGraphModel dx="1248" dy="677" grid="1" gridSize="10" guides="1" tooltips="1" connect="1" arrows="1" fold="1" page="1" pageScale="1" pageWidth="1654" pageHeight="2336" math="0" shadow="0" extFonts="Permanent Marker^https://fonts.googleapis.com/css?family=Permanent+Marker">
      <root>
        <mxCell id="0" />
        <mxCell id="1" parent="0" />
        <mxCell id="UU7fatPGStvRXGvjoXkg-184" value="" style="whiteSpace=wrap;html=1;" vertex="1" parent="1">
          <mxGeometry x="110" y="270" width="1230" height="970" as="geometry" />
        </mxCell>
        <mxCell id="UU7fatPGStvRXGvjoXkg-1" value="Agência" style="shape=table;startSize=30;container=1;collapsible=1;childLayout=tableLayout;fixedRows=1;rowLines=0;fontStyle=1;align=center;resizeLast=1;" vertex="1" parent="1">
          <mxGeometry x="800" y="520" width="180" height="130" as="geometry" />
        </mxCell>
        <mxCell id="UU7fatPGStvRXGvjoXkg-2" value="" style="shape=partialRectangle;collapsible=0;dropTarget=0;pointerEvents=0;fillColor=none;top=0;left=0;bottom=1;right=0;points=[[0,0.5],[1,0.5]];portConstraint=eastwest;" vertex="1" parent="UU7fatPGStvRXGvjoXkg-1">
          <mxGeometry y="30" width="180" height="30" as="geometry" />
        </mxCell>
        <mxCell id="UU7fatPGStvRXGvjoXkg-3" value="PK" style="shape=partialRectangle;connectable=0;fillColor=none;top=0;left=0;bottom=0;right=0;fontStyle=1;overflow=hidden;" vertex="1" parent="UU7fatPGStvRXGvjoXkg-2">
          <mxGeometry width="30" height="30" as="geometry" />
        </mxCell>
        <mxCell id="UU7fatPGStvRXGvjoXkg-4" value="nome_agência" style="shape=partialRectangle;connectable=0;fillColor=none;top=0;left=0;bottom=0;right=0;align=left;spacingLeft=6;fontStyle=5;overflow=hidden;" vertex="1" parent="UU7fatPGStvRXGvjoXkg-2">
          <mxGeometry x="30" width="150" height="30" as="geometry" />
        </mxCell>
        <mxCell id="UU7fatPGStvRXGvjoXkg-5" value="" style="shape=partialRectangle;collapsible=0;dropTarget=0;pointerEvents=0;fillColor=none;top=0;left=0;bottom=0;right=0;points=[[0,0.5],[1,0.5]];portConstraint=eastwest;" vertex="1" parent="UU7fatPGStvRXGvjoXkg-1">
          <mxGeometry y="60" width="180" height="30" as="geometry" />
        </mxCell>
        <mxCell id="UU7fatPGStvRXGvjoXkg-6" value="" style="shape=partialRectangle;connectable=0;fillColor=none;top=0;left=0;bottom=0;right=0;editable=1;overflow=hidden;" vertex="1" parent="UU7fatPGStvRXGvjoXkg-5">
          <mxGeometry width="30" height="30" as="geometry" />
        </mxCell>
        <mxCell id="UU7fatPGStvRXGvjoXkg-7" value="cidade_agência" style="shape=partialRectangle;connectable=0;fillColor=none;top=0;left=0;bottom=0;right=0;align=left;spacingLeft=6;overflow=hidden;" vertex="1" parent="UU7fatPGStvRXGvjoXkg-5">
          <mxGeometry x="30" width="150" height="30" as="geometry" />
        </mxCell>
        <mxCell id="UU7fatPGStvRXGvjoXkg-8" value="" style="shape=partialRectangle;collapsible=0;dropTarget=0;pointerEvents=0;fillColor=none;top=0;left=0;bottom=0;right=0;points=[[0,0.5],[1,0.5]];portConstraint=eastwest;" vertex="1" parent="UU7fatPGStvRXGvjoXkg-1">
          <mxGeometry y="90" width="180" height="30" as="geometry" />
        </mxCell>
        <mxCell id="UU7fatPGStvRXGvjoXkg-9" value="" style="shape=partialRectangle;connectable=0;fillColor=none;top=0;left=0;bottom=0;right=0;editable=1;overflow=hidden;" vertex="1" parent="UU7fatPGStvRXGvjoXkg-8">
          <mxGeometry width="30" height="30" as="geometry" />
        </mxCell>
        <mxCell id="UU7fatPGStvRXGvjoXkg-10" value="ativo" style="shape=partialRectangle;connectable=0;fillColor=none;top=0;left=0;bottom=0;right=0;align=left;spacingLeft=6;overflow=hidden;" vertex="1" parent="UU7fatPGStvRXGvjoXkg-8">
          <mxGeometry x="30" width="150" height="30" as="geometry" />
        </mxCell>
        <mxCell id="UU7fatPGStvRXGvjoXkg-61" value="conta_poupança" style="shape=table;startSize=30;container=1;collapsible=1;childLayout=tableLayout;fixedRows=1;rowLines=0;fontStyle=1;align=center;resizeLast=1;" vertex="1" parent="1">
          <mxGeometry x="1097" y="800" width="180" height="70" as="geometry" />
        </mxCell>
        <mxCell id="UU7fatPGStvRXGvjoXkg-65" value="" style="shape=partialRectangle;collapsible=0;dropTarget=0;pointerEvents=0;fillColor=none;top=0;left=0;bottom=0;right=0;points=[[0,0.5],[1,0.5]];portConstraint=eastwest;" vertex="1" parent="UU7fatPGStvRXGvjoXkg-61">
          <mxGeometry y="30" width="180" height="30" as="geometry" />
        </mxCell>
        <mxCell id="UU7fatPGStvRXGvjoXkg-66" value="" style="shape=partialRectangle;connectable=0;fillColor=none;top=0;left=0;bottom=0;right=0;editable=1;overflow=hidden;" vertex="1" parent="UU7fatPGStvRXGvjoXkg-65">
          <mxGeometry width="30" height="30" as="geometry" />
        </mxCell>
        <mxCell id="UU7fatPGStvRXGvjoXkg-67" value="taxa_juros" style="shape=partialRectangle;connectable=0;fillColor=none;top=0;left=0;bottom=0;right=0;align=left;spacingLeft=6;overflow=hidden;" vertex="1" parent="UU7fatPGStvRXGvjoXkg-65">
          <mxGeometry x="30" width="150" height="30" as="geometry" />
        </mxCell>
        <mxCell id="UU7fatPGStvRXGvjoXkg-74" value="conta_corrente" style="shape=table;startSize=30;container=1;collapsible=1;childLayout=tableLayout;fixedRows=1;rowLines=0;fontStyle=1;align=center;resizeLast=1;" vertex="1" parent="1">
          <mxGeometry x="1097" y="920" width="200" height="70" as="geometry" />
        </mxCell>
        <mxCell id="UU7fatPGStvRXGvjoXkg-78" value="" style="shape=partialRectangle;collapsible=0;dropTarget=0;pointerEvents=0;fillColor=none;top=0;left=0;bottom=0;right=0;points=[[0,0.5],[1,0.5]];portConstraint=eastwest;" vertex="1" parent="UU7fatPGStvRXGvjoXkg-74">
          <mxGeometry y="30" width="200" height="30" as="geometry" />
        </mxCell>
        <mxCell id="UU7fatPGStvRXGvjoXkg-79" value="" style="shape=partialRectangle;connectable=0;fillColor=none;top=0;left=0;bottom=0;right=0;editable=1;overflow=hidden;" vertex="1" parent="UU7fatPGStvRXGvjoXkg-78">
          <mxGeometry width="30" height="30" as="geometry" />
        </mxCell>
        <mxCell id="UU7fatPGStvRXGvjoXkg-80" value="quantia_saque_descoberta" style="shape=partialRectangle;connectable=0;fillColor=none;top=0;left=0;bottom=0;right=0;align=left;spacingLeft=6;overflow=hidden;" vertex="1" parent="UU7fatPGStvRXGvjoXkg-78">
          <mxGeometry x="30" width="170" height="30" as="geometry" />
        </mxCell>
        <mxCell id="UU7fatPGStvRXGvjoXkg-106" value="" style="group" vertex="1" connectable="0" parent="1">
          <mxGeometry x="800" y="840" width="180" height="110" as="geometry" />
        </mxCell>
        <mxCell id="UU7fatPGStvRXGvjoXkg-42" value="conta" style="shape=table;startSize=30;container=1;collapsible=1;childLayout=tableLayout;fixedRows=1;rowLines=0;fontStyle=1;align=center;resizeLast=1;" vertex="1" parent="UU7fatPGStvRXGvjoXkg-106">
          <mxGeometry width="180" height="110" as="geometry" />
        </mxCell>
        <mxCell id="UU7fatPGStvRXGvjoXkg-46" value="" style="shape=partialRectangle;collapsible=0;dropTarget=0;pointerEvents=0;fillColor=none;top=0;left=0;bottom=0;right=0;points=[[0,0.5],[1,0.5]];portConstraint=eastwest;" vertex="1" parent="UU7fatPGStvRXGvjoXkg-42">
          <mxGeometry y="30" width="180" height="25" as="geometry" />
        </mxCell>
        <mxCell id="UU7fatPGStvRXGvjoXkg-47" value="" style="shape=partialRectangle;connectable=0;fillColor=none;top=0;left=0;bottom=0;right=0;editable=1;overflow=hidden;" vertex="1" parent="UU7fatPGStvRXGvjoXkg-46">
          <mxGeometry width="30" height="25" as="geometry" />
        </mxCell>
        <mxCell id="UU7fatPGStvRXGvjoXkg-48" value="numero_conta" style="shape=partialRectangle;connectable=0;fillColor=none;top=0;left=0;bottom=0;right=0;align=left;spacingLeft=6;overflow=hidden;" vertex="1" parent="UU7fatPGStvRXGvjoXkg-46">
          <mxGeometry x="30" width="150" height="25" as="geometry" />
        </mxCell>
        <mxCell id="UU7fatPGStvRXGvjoXkg-49" value="" style="shape=partialRectangle;collapsible=0;dropTarget=0;pointerEvents=0;fillColor=none;top=0;left=0;bottom=0;right=0;points=[[0,0.5],[1,0.5]];portConstraint=eastwest;" vertex="1" parent="UU7fatPGStvRXGvjoXkg-42">
          <mxGeometry y="55" width="180" height="25" as="geometry" />
        </mxCell>
        <mxCell id="UU7fatPGStvRXGvjoXkg-50" value="" style="shape=partialRectangle;connectable=0;fillColor=none;top=0;left=0;bottom=0;right=0;editable=1;overflow=hidden;" vertex="1" parent="UU7fatPGStvRXGvjoXkg-49">
          <mxGeometry width="30" height="25" as="geometry" />
        </mxCell>
        <mxCell id="UU7fatPGStvRXGvjoXkg-51" value="saldo" style="shape=partialRectangle;connectable=0;fillColor=none;top=0;left=0;bottom=0;right=0;align=left;spacingLeft=6;overflow=hidden;" vertex="1" parent="UU7fatPGStvRXGvjoXkg-49">
          <mxGeometry x="30" width="150" height="25" as="geometry" />
        </mxCell>
        <mxCell id="UU7fatPGStvRXGvjoXkg-105" value="agência_conta" style="shape=partialRectangle;connectable=0;fillColor=none;top=0;left=0;bottom=0;right=0;align=left;spacingLeft=6;overflow=hidden;" vertex="1" parent="UU7fatPGStvRXGvjoXkg-106">
          <mxGeometry x="30" y="77.5" width="150" height="25" as="geometry" />
        </mxCell>
        <mxCell id="UU7fatPGStvRXGvjoXkg-107" value="" style="group" vertex="1" connectable="0" parent="1">
          <mxGeometry x="150" y="920" width="180" height="270" as="geometry" />
        </mxCell>
        <mxCell id="UU7fatPGStvRXGvjoXkg-87" value="funcionário" style="shape=table;startSize=30;container=1;collapsible=1;childLayout=tableLayout;fixedRows=1;rowLines=0;fontStyle=1;align=center;resizeLast=1;" vertex="1" parent="UU7fatPGStvRXGvjoXkg-107">
          <mxGeometry width="180" height="270" as="geometry">
            <mxRectangle width="100" height="30" as="alternateBounds" />
          </mxGeometry>
        </mxCell>
        <mxCell id="UU7fatPGStvRXGvjoXkg-91" value="" style="shape=partialRectangle;collapsible=0;dropTarget=0;pointerEvents=0;fillColor=none;top=0;left=0;bottom=0;right=0;points=[[0,0.5],[1,0.5]];portConstraint=eastwest;" vertex="1" parent="UU7fatPGStvRXGvjoXkg-87">
          <mxGeometry y="30" width="180" height="30" as="geometry" />
        </mxCell>
        <mxCell id="UU7fatPGStvRXGvjoXkg-92" value="" style="shape=partialRectangle;connectable=0;fillColor=none;top=0;left=0;bottom=0;right=0;editable=1;overflow=hidden;" vertex="1" parent="UU7fatPGStvRXGvjoXkg-91">
          <mxGeometry width="30" height="30" as="geometry" />
        </mxCell>
        <mxCell id="UU7fatPGStvRXGvjoXkg-93" value="id_funcionario" style="shape=partialRectangle;connectable=0;fillColor=none;top=0;left=0;bottom=0;right=0;align=left;spacingLeft=6;overflow=hidden;" vertex="1" parent="UU7fatPGStvRXGvjoXkg-91">
          <mxGeometry x="30" width="150" height="30" as="geometry" />
        </mxCell>
        <mxCell id="UU7fatPGStvRXGvjoXkg-94" value="" style="shape=partialRectangle;collapsible=0;dropTarget=0;pointerEvents=0;fillColor=none;top=0;left=0;bottom=0;right=0;points=[[0,0.5],[1,0.5]];portConstraint=eastwest;" vertex="1" parent="UU7fatPGStvRXGvjoXkg-87">
          <mxGeometry y="60" width="180" height="30" as="geometry" />
        </mxCell>
        <mxCell id="UU7fatPGStvRXGvjoXkg-95" value="" style="shape=partialRectangle;connectable=0;fillColor=none;top=0;left=0;bottom=0;right=0;editable=1;overflow=hidden;" vertex="1" parent="UU7fatPGStvRXGvjoXkg-94">
          <mxGeometry width="30" height="30" as="geometry" />
        </mxCell>
        <mxCell id="UU7fatPGStvRXGvjoXkg-96" value="nome_dependente" style="shape=partialRectangle;connectable=0;fillColor=none;top=0;left=0;bottom=0;right=0;align=left;spacingLeft=6;overflow=hidden;" vertex="1" parent="UU7fatPGStvRXGvjoXkg-94">
          <mxGeometry x="30" width="150" height="30" as="geometry" />
        </mxCell>
        <mxCell id="UU7fatPGStvRXGvjoXkg-97" value="" style="shape=partialRectangle;collapsible=0;dropTarget=0;pointerEvents=0;fillColor=none;top=0;left=0;bottom=0;right=0;points=[[0,0.5],[1,0.5]];portConstraint=eastwest;" vertex="1" parent="UU7fatPGStvRXGvjoXkg-87">
          <mxGeometry y="90" width="180" height="30" as="geometry" />
        </mxCell>
        <mxCell id="UU7fatPGStvRXGvjoXkg-98" value="" style="shape=partialRectangle;connectable=0;fillColor=none;top=0;left=0;bottom=0;right=0;editable=1;overflow=hidden;" vertex="1" parent="UU7fatPGStvRXGvjoXkg-97">
          <mxGeometry width="30" height="30" as="geometry" />
        </mxCell>
        <mxCell id="UU7fatPGStvRXGvjoXkg-99" value="tempo_serviço" style="shape=partialRectangle;connectable=0;fillColor=none;top=0;left=0;bottom=0;right=0;align=left;spacingLeft=6;overflow=hidden;" vertex="1" parent="UU7fatPGStvRXGvjoXkg-97">
          <mxGeometry x="30" width="150" height="30" as="geometry" />
        </mxCell>
        <mxCell id="UU7fatPGStvRXGvjoXkg-100" value="data_admissao" style="shape=partialRectangle;connectable=0;fillColor=none;top=0;left=0;bottom=0;right=0;align=left;spacingLeft=6;overflow=hidden;" vertex="1" parent="UU7fatPGStvRXGvjoXkg-107">
          <mxGeometry x="30" y="120" width="150" height="30" as="geometry" />
        </mxCell>
        <mxCell id="UU7fatPGStvRXGvjoXkg-101" value="numero_telefone" style="shape=partialRectangle;connectable=0;fillColor=none;top=0;left=0;bottom=0;right=0;align=left;spacingLeft=6;overflow=hidden;" vertex="1" parent="UU7fatPGStvRXGvjoXkg-107">
          <mxGeometry x="30" y="150" width="150" height="30" as="geometry" />
        </mxCell>
        <mxCell id="UU7fatPGStvRXGvjoXkg-102" value="nome_funcionário" style="shape=partialRectangle;connectable=0;fillColor=none;top=0;left=0;bottom=0;right=0;align=left;spacingLeft=6;overflow=hidden;" vertex="1" parent="UU7fatPGStvRXGvjoXkg-107">
          <mxGeometry x="30" y="180" width="150" height="30" as="geometry" />
        </mxCell>
        <mxCell id="UU7fatPGStvRXGvjoXkg-103" value="gerente" style="shape=partialRectangle;connectable=0;fillColor=none;top=0;left=0;bottom=0;right=0;align=left;spacingLeft=6;overflow=hidden;" vertex="1" parent="UU7fatPGStvRXGvjoXkg-107">
          <mxGeometry x="30" y="210" width="150" height="30" as="geometry" />
        </mxCell>
        <mxCell id="UU7fatPGStvRXGvjoXkg-104" value="trabalhador" style="shape=partialRectangle;connectable=0;fillColor=none;top=0;left=0;bottom=0;right=0;align=left;spacingLeft=6;overflow=hidden;" vertex="1" parent="UU7fatPGStvRXGvjoXkg-107">
          <mxGeometry x="30" y="240" width="150" height="30" as="geometry" />
        </mxCell>
        <mxCell id="UU7fatPGStvRXGvjoXkg-115" value="" style="edgeStyle=entityRelationEdgeStyle;fontSize=12;html=1;endArrow=ERone;startArrow=ERone;exitX=1;exitY=0.5;exitDx=0;exitDy=0;entryX=0;entryY=0.25;entryDx=0;entryDy=0;startFill=0;endFill=0;" edge="1" parent="1" source="UU7fatPGStvRXGvjoXkg-46" target="UU7fatPGStvRXGvjoXkg-61">
          <mxGeometry width="100" height="100" relative="1" as="geometry">
            <mxPoint x="970" y="840" as="sourcePoint" />
            <mxPoint x="1070" y="740" as="targetPoint" />
          </mxGeometry>
        </mxCell>
        <mxCell id="UU7fatPGStvRXGvjoXkg-116" value="" style="edgeStyle=entityRelationEdgeStyle;fontSize=12;html=1;endArrow=ERone;startArrow=ERone;entryX=0;entryY=0.5;entryDx=0;entryDy=0;exitX=1;exitY=0.5;exitDx=0;exitDy=0;endFill=0;startFill=0;" edge="1" parent="1" source="UU7fatPGStvRXGvjoXkg-49" target="UU7fatPGStvRXGvjoXkg-78">
          <mxGeometry width="100" height="100" relative="1" as="geometry">
            <mxPoint x="1000" y="904" as="sourcePoint" />
            <mxPoint x="1080" y="900" as="targetPoint" />
          </mxGeometry>
        </mxCell>
        <mxCell id="UU7fatPGStvRXGvjoXkg-139" value="empréstimo" style="shape=table;startSize=30;container=1;collapsible=1;childLayout=tableLayout;fixedRows=1;rowLines=0;fontStyle=1;align=center;resizeLast=1;" vertex="1" parent="1">
          <mxGeometry x="480" y="540" width="180" height="130" as="geometry" />
        </mxCell>
        <mxCell id="UU7fatPGStvRXGvjoXkg-143" value="" style="shape=partialRectangle;collapsible=0;dropTarget=0;pointerEvents=0;fillColor=none;top=0;left=0;bottom=0;right=0;points=[[0,0.5],[1,0.5]];portConstraint=eastwest;" vertex="1" parent="UU7fatPGStvRXGvjoXkg-139">
          <mxGeometry y="30" width="180" height="30" as="geometry" />
        </mxCell>
        <mxCell id="UU7fatPGStvRXGvjoXkg-144" value="" style="shape=partialRectangle;connectable=0;fillColor=none;top=0;left=0;bottom=0;right=0;editable=1;overflow=hidden;" vertex="1" parent="UU7fatPGStvRXGvjoXkg-143">
          <mxGeometry width="30" height="30" as="geometry" />
        </mxCell>
        <mxCell id="UU7fatPGStvRXGvjoXkg-145" value="numero_emprestimo" style="shape=partialRectangle;connectable=0;fillColor=none;top=0;left=0;bottom=0;right=0;align=left;spacingLeft=6;overflow=hidden;" vertex="1" parent="UU7fatPGStvRXGvjoXkg-143">
          <mxGeometry x="30" width="150" height="30" as="geometry" />
        </mxCell>
        <mxCell id="UU7fatPGStvRXGvjoXkg-146" value="" style="shape=partialRectangle;collapsible=0;dropTarget=0;pointerEvents=0;fillColor=none;top=0;left=0;bottom=0;right=0;points=[[0,0.5],[1,0.5]];portConstraint=eastwest;" vertex="1" parent="UU7fatPGStvRXGvjoXkg-139">
          <mxGeometry y="60" width="180" height="30" as="geometry" />
        </mxCell>
        <mxCell id="UU7fatPGStvRXGvjoXkg-147" value="" style="shape=partialRectangle;connectable=0;fillColor=none;top=0;left=0;bottom=0;right=0;editable=1;overflow=hidden;" vertex="1" parent="UU7fatPGStvRXGvjoXkg-146">
          <mxGeometry width="30" height="30" as="geometry" />
        </mxCell>
        <mxCell id="UU7fatPGStvRXGvjoXkg-148" value="quantia" style="shape=partialRectangle;connectable=0;fillColor=none;top=0;left=0;bottom=0;right=0;align=left;spacingLeft=6;overflow=hidden;" vertex="1" parent="UU7fatPGStvRXGvjoXkg-146">
          <mxGeometry x="30" width="150" height="30" as="geometry" />
        </mxCell>
        <mxCell id="UU7fatPGStvRXGvjoXkg-149" value="" style="shape=partialRectangle;collapsible=0;dropTarget=0;pointerEvents=0;fillColor=none;top=0;left=0;bottom=0;right=0;points=[[0,0.5],[1,0.5]];portConstraint=eastwest;" vertex="1" parent="UU7fatPGStvRXGvjoXkg-139">
          <mxGeometry y="90" width="180" height="30" as="geometry" />
        </mxCell>
        <mxCell id="UU7fatPGStvRXGvjoXkg-150" value="" style="shape=partialRectangle;connectable=0;fillColor=none;top=0;left=0;bottom=0;right=0;editable=1;overflow=hidden;" vertex="1" parent="UU7fatPGStvRXGvjoXkg-149">
          <mxGeometry width="30" height="30" as="geometry" />
        </mxCell>
        <mxCell id="UU7fatPGStvRXGvjoXkg-151" value="agencia_emprestimo" style="shape=partialRectangle;connectable=0;fillColor=none;top=0;left=0;bottom=0;right=0;align=left;spacingLeft=6;overflow=hidden;" vertex="1" parent="UU7fatPGStvRXGvjoXkg-149">
          <mxGeometry x="30" width="150" height="30" as="geometry" />
        </mxCell>
        <mxCell id="UU7fatPGStvRXGvjoXkg-152" value="" style="group" vertex="1" connectable="0" parent="1">
          <mxGeometry x="150" y="550" width="180" height="250" as="geometry" />
        </mxCell>
        <mxCell id="UU7fatPGStvRXGvjoXkg-14" value="cliente" style="shape=table;startSize=30;container=1;collapsible=1;childLayout=tableLayout;fixedRows=1;rowLines=0;fontStyle=1;align=center;resizeLast=1;" vertex="1" parent="UU7fatPGStvRXGvjoXkg-152">
          <mxGeometry width="180" height="250.00000000000003" as="geometry" />
        </mxCell>
        <mxCell id="UU7fatPGStvRXGvjoXkg-15" value="" style="shape=partialRectangle;collapsible=0;dropTarget=0;pointerEvents=0;fillColor=none;top=0;left=0;bottom=1;right=0;points=[[0,0.5],[1,0.5]];portConstraint=eastwest;" vertex="1" parent="UU7fatPGStvRXGvjoXkg-14">
          <mxGeometry y="30" width="180" height="30" as="geometry" />
        </mxCell>
        <mxCell id="UU7fatPGStvRXGvjoXkg-16" value="PK" style="shape=partialRectangle;connectable=0;fillColor=none;top=0;left=0;bottom=0;right=0;fontStyle=1;overflow=hidden;" vertex="1" parent="UU7fatPGStvRXGvjoXkg-15">
          <mxGeometry width="30" height="30" as="geometry" />
        </mxCell>
        <mxCell id="UU7fatPGStvRXGvjoXkg-17" value="id_cliente" style="shape=partialRectangle;connectable=0;fillColor=none;top=0;left=0;bottom=0;right=0;align=left;spacingLeft=6;fontStyle=5;overflow=hidden;" vertex="1" parent="UU7fatPGStvRXGvjoXkg-15">
          <mxGeometry x="30" width="150" height="30" as="geometry" />
        </mxCell>
        <mxCell id="UU7fatPGStvRXGvjoXkg-18" value="" style="shape=partialRectangle;collapsible=0;dropTarget=0;pointerEvents=0;fillColor=none;top=0;left=0;bottom=0;right=0;points=[[0,0.5],[1,0.5]];portConstraint=eastwest;" vertex="1" parent="UU7fatPGStvRXGvjoXkg-14">
          <mxGeometry y="60" width="180" height="30" as="geometry" />
        </mxCell>
        <mxCell id="UU7fatPGStvRXGvjoXkg-19" value="" style="shape=partialRectangle;connectable=0;fillColor=none;top=0;left=0;bottom=0;right=0;editable=1;overflow=hidden;" vertex="1" parent="UU7fatPGStvRXGvjoXkg-18">
          <mxGeometry width="30" height="30" as="geometry" />
        </mxCell>
        <mxCell id="UU7fatPGStvRXGvjoXkg-20" value="nome_cliente" style="shape=partialRectangle;connectable=0;fillColor=none;top=0;left=0;bottom=0;right=0;align=left;spacingLeft=6;overflow=hidden;" vertex="1" parent="UU7fatPGStvRXGvjoXkg-18">
          <mxGeometry x="30" width="150" height="30" as="geometry" />
        </mxCell>
        <mxCell id="UU7fatPGStvRXGvjoXkg-21" value="" style="shape=partialRectangle;collapsible=0;dropTarget=0;pointerEvents=0;fillColor=none;top=0;left=0;bottom=0;right=0;points=[[0,0.5],[1,0.5]];portConstraint=eastwest;" vertex="1" parent="UU7fatPGStvRXGvjoXkg-14">
          <mxGeometry y="90" width="180" height="30" as="geometry" />
        </mxCell>
        <mxCell id="UU7fatPGStvRXGvjoXkg-22" value="" style="shape=partialRectangle;connectable=0;fillColor=none;top=0;left=0;bottom=0;right=0;editable=1;overflow=hidden;" vertex="1" parent="UU7fatPGStvRXGvjoXkg-21">
          <mxGeometry width="30" height="30" as="geometry" />
        </mxCell>
        <mxCell id="UU7fatPGStvRXGvjoXkg-23" value="rua_cliente" style="shape=partialRectangle;connectable=0;fillColor=none;top=0;left=0;bottom=0;right=0;align=left;spacingLeft=6;overflow=hidden;" vertex="1" parent="UU7fatPGStvRXGvjoXkg-21">
          <mxGeometry x="30" width="150" height="30" as="geometry" />
        </mxCell>
        <mxCell id="UU7fatPGStvRXGvjoXkg-24" value="" style="shape=partialRectangle;collapsible=0;dropTarget=0;pointerEvents=0;fillColor=none;top=0;left=0;bottom=0;right=0;points=[[0,0.5],[1,0.5]];portConstraint=eastwest;" vertex="1" parent="UU7fatPGStvRXGvjoXkg-14">
          <mxGeometry y="120" width="180" height="30" as="geometry" />
        </mxCell>
        <mxCell id="UU7fatPGStvRXGvjoXkg-25" value="" style="shape=partialRectangle;connectable=0;fillColor=none;top=0;left=0;bottom=0;right=0;editable=1;overflow=hidden;" vertex="1" parent="UU7fatPGStvRXGvjoXkg-24">
          <mxGeometry width="30" height="30" as="geometry" />
        </mxCell>
        <mxCell id="UU7fatPGStvRXGvjoXkg-26" value="cidade_cliente" style="shape=partialRectangle;connectable=0;fillColor=none;top=0;left=0;bottom=0;right=0;align=left;spacingLeft=6;overflow=hidden;" vertex="1" parent="UU7fatPGStvRXGvjoXkg-24">
          <mxGeometry x="30" width="150" height="30" as="geometry" />
        </mxCell>
        <mxCell id="UU7fatPGStvRXGvjoXkg-133" value="" style="shape=partialRectangle;collapsible=0;dropTarget=0;pointerEvents=0;fillColor=none;top=0;left=0;bottom=0;right=0;points=[[0,0.5],[1,0.5]];portConstraint=eastwest;" vertex="1" parent="UU7fatPGStvRXGvjoXkg-152">
          <mxGeometry y="149.99881987577643" width="180" height="35.714285714285715" as="geometry" />
        </mxCell>
        <mxCell id="UU7fatPGStvRXGvjoXkg-134" value="" style="shape=partialRectangle;connectable=0;fillColor=none;top=0;left=0;bottom=0;right=0;editable=1;overflow=hidden;" vertex="1" parent="UU7fatPGStvRXGvjoXkg-133">
          <mxGeometry width="30" height="35.714285714285715" as="geometry" />
        </mxCell>
        <mxCell id="UU7fatPGStvRXGvjoXkg-135" value="tomador" style="shape=partialRectangle;connectable=0;fillColor=none;top=0;left=0;bottom=0;right=0;align=left;spacingLeft=6;overflow=hidden;" vertex="1" parent="UU7fatPGStvRXGvjoXkg-133">
          <mxGeometry x="30" width="150" height="35.714285714285715" as="geometry" />
        </mxCell>
        <mxCell id="UU7fatPGStvRXGvjoXkg-136" value="" style="shape=partialRectangle;collapsible=0;dropTarget=0;pointerEvents=0;fillColor=none;top=0;left=0;bottom=0;right=0;points=[[0,0.5],[1,0.5]];portConstraint=eastwest;" vertex="1" parent="UU7fatPGStvRXGvjoXkg-152">
          <mxGeometry y="180.00310559006215" width="180" height="35.714285714285715" as="geometry" />
        </mxCell>
        <mxCell id="UU7fatPGStvRXGvjoXkg-137" value="" style="shape=partialRectangle;connectable=0;fillColor=none;top=0;left=0;bottom=0;right=0;editable=1;overflow=hidden;" vertex="1" parent="UU7fatPGStvRXGvjoXkg-136">
          <mxGeometry width="30" height="35.714285714285715" as="geometry" />
        </mxCell>
        <mxCell id="UU7fatPGStvRXGvjoXkg-138" value="tipo-banqueiro_cliente" style="shape=partialRectangle;connectable=0;fillColor=none;top=0;left=0;bottom=0;right=0;align=left;spacingLeft=6;overflow=hidden;" vertex="1" parent="UU7fatPGStvRXGvjoXkg-136">
          <mxGeometry x="30" width="150" height="35.714285714285715" as="geometry" />
        </mxCell>
        <mxCell id="UU7fatPGStvRXGvjoXkg-174" value="" style="shape=partialRectangle;collapsible=0;dropTarget=0;pointerEvents=0;fillColor=none;top=0;left=0;bottom=0;right=0;points=[[0,0.5],[1,0.5]];portConstraint=eastwest;" vertex="1" parent="UU7fatPGStvRXGvjoXkg-152">
          <mxGeometry y="210.00310559006215" width="180" height="35.714285714285715" as="geometry" />
        </mxCell>
        <mxCell id="UU7fatPGStvRXGvjoXkg-175" value="" style="shape=partialRectangle;connectable=0;fillColor=none;top=0;left=0;bottom=0;right=0;editable=1;overflow=hidden;" vertex="1" parent="UU7fatPGStvRXGvjoXkg-174">
          <mxGeometry width="30" height="35.714285714285715" as="geometry" />
        </mxCell>
        <mxCell id="UU7fatPGStvRXGvjoXkg-176" value="data_acesso-depositante" style="shape=partialRectangle;connectable=0;fillColor=none;top=0;left=0;bottom=0;right=0;align=left;spacingLeft=6;overflow=hidden;" vertex="1" parent="UU7fatPGStvRXGvjoXkg-174">
          <mxGeometry x="30" width="150" height="35.714285714285715" as="geometry" />
        </mxCell>
        <mxCell id="UU7fatPGStvRXGvjoXkg-154" value="" style="edgeStyle=entityRelationEdgeStyle;fontSize=12;html=1;endArrow=ERoneToMany;startArrow=ERone;exitX=1;exitY=0.5;exitDx=0;exitDy=0;entryX=0;entryY=0.5;entryDx=0;entryDy=0;startFill=0;" edge="1" parent="1" source="UU7fatPGStvRXGvjoXkg-146" target="UU7fatPGStvRXGvjoXkg-2">
          <mxGeometry width="100" height="100" relative="1" as="geometry">
            <mxPoint x="590" y="630" as="sourcePoint" />
            <mxPoint x="690" y="530" as="targetPoint" />
          </mxGeometry>
        </mxCell>
        <mxCell id="UU7fatPGStvRXGvjoXkg-172" value="" style="edgeStyle=entityRelationEdgeStyle;fontSize=12;html=1;endArrow=ERoneToMany;startArrow=ERone;startFill=0;entryX=0;entryY=0.5;entryDx=0;entryDy=0;exitX=1;exitY=0.077;exitDx=0;exitDy=0;exitPerimeter=0;" edge="1" parent="1" source="UU7fatPGStvRXGvjoXkg-139" target="UU7fatPGStvRXGvjoXkg-159">
          <mxGeometry width="100" height="100" relative="1" as="geometry">
            <mxPoint x="680" y="540" as="sourcePoint" />
            <mxPoint x="780" y="440" as="targetPoint" />
          </mxGeometry>
        </mxCell>
        <mxCell id="UU7fatPGStvRXGvjoXkg-173" value="" style="group" vertex="1" connectable="0" parent="1">
          <mxGeometry x="710" y="320" width="180" height="150" as="geometry" />
        </mxCell>
        <mxCell id="UU7fatPGStvRXGvjoXkg-155" value="pagamento" style="shape=table;startSize=30;container=1;collapsible=1;childLayout=tableLayout;fixedRows=1;rowLines=0;fontStyle=1;align=center;resizeLast=1;" vertex="1" parent="UU7fatPGStvRXGvjoXkg-173">
          <mxGeometry width="180" height="150" as="geometry" />
        </mxCell>
        <mxCell id="UU7fatPGStvRXGvjoXkg-159" value="" style="shape=partialRectangle;collapsible=0;dropTarget=0;pointerEvents=0;fillColor=none;top=0;left=0;bottom=0;right=0;points=[[0,0.5],[1,0.5]];portConstraint=eastwest;" vertex="1" parent="UU7fatPGStvRXGvjoXkg-155">
          <mxGeometry y="30" width="180" height="30" as="geometry" />
        </mxCell>
        <mxCell id="UU7fatPGStvRXGvjoXkg-160" value="" style="shape=partialRectangle;connectable=0;fillColor=none;top=0;left=0;bottom=0;right=0;editable=1;overflow=hidden;" vertex="1" parent="UU7fatPGStvRXGvjoXkg-159">
          <mxGeometry width="30" height="30" as="geometry" />
        </mxCell>
        <mxCell id="UU7fatPGStvRXGvjoXkg-161" value="numero_pagamento" style="shape=partialRectangle;connectable=0;fillColor=none;top=0;left=0;bottom=0;right=0;align=left;spacingLeft=6;overflow=hidden;" vertex="1" parent="UU7fatPGStvRXGvjoXkg-159">
          <mxGeometry x="30" width="150" height="30" as="geometry" />
        </mxCell>
        <mxCell id="UU7fatPGStvRXGvjoXkg-162" value="" style="shape=partialRectangle;collapsible=0;dropTarget=0;pointerEvents=0;fillColor=none;top=0;left=0;bottom=0;right=0;points=[[0,0.5],[1,0.5]];portConstraint=eastwest;" vertex="1" parent="UU7fatPGStvRXGvjoXkg-155">
          <mxGeometry y="60" width="180" height="30" as="geometry" />
        </mxCell>
        <mxCell id="UU7fatPGStvRXGvjoXkg-163" value="" style="shape=partialRectangle;connectable=0;fillColor=none;top=0;left=0;bottom=0;right=0;editable=1;overflow=hidden;" vertex="1" parent="UU7fatPGStvRXGvjoXkg-162">
          <mxGeometry width="30" height="30" as="geometry" />
        </mxCell>
        <mxCell id="UU7fatPGStvRXGvjoXkg-164" value="data_pagamento" style="shape=partialRectangle;connectable=0;fillColor=none;top=0;left=0;bottom=0;right=0;align=left;spacingLeft=6;overflow=hidden;" vertex="1" parent="UU7fatPGStvRXGvjoXkg-162">
          <mxGeometry x="30" width="150" height="30" as="geometry" />
        </mxCell>
        <mxCell id="UU7fatPGStvRXGvjoXkg-165" value="" style="shape=partialRectangle;collapsible=0;dropTarget=0;pointerEvents=0;fillColor=none;top=0;left=0;bottom=0;right=0;points=[[0,0.5],[1,0.5]];portConstraint=eastwest;" vertex="1" parent="UU7fatPGStvRXGvjoXkg-155">
          <mxGeometry y="90" width="180" height="30" as="geometry" />
        </mxCell>
        <mxCell id="UU7fatPGStvRXGvjoXkg-166" value="" style="shape=partialRectangle;connectable=0;fillColor=none;top=0;left=0;bottom=0;right=0;editable=1;overflow=hidden;" vertex="1" parent="UU7fatPGStvRXGvjoXkg-165">
          <mxGeometry width="30" height="30" as="geometry" />
        </mxCell>
        <mxCell id="UU7fatPGStvRXGvjoXkg-167" value="quantia_pagamento" style="shape=partialRectangle;connectable=0;fillColor=none;top=0;left=0;bottom=0;right=0;align=left;spacingLeft=6;overflow=hidden;" vertex="1" parent="UU7fatPGStvRXGvjoXkg-165">
          <mxGeometry x="30" width="150" height="30" as="geometry" />
        </mxCell>
        <mxCell id="UU7fatPGStvRXGvjoXkg-168" value="" style="shape=partialRectangle;collapsible=0;dropTarget=0;pointerEvents=0;fillColor=none;top=0;left=0;bottom=0;right=0;points=[[0,0.5],[1,0.5]];portConstraint=eastwest;" vertex="1" parent="UU7fatPGStvRXGvjoXkg-173">
          <mxGeometry y="120" width="180" height="30" as="geometry" />
        </mxCell>
        <mxCell id="UU7fatPGStvRXGvjoXkg-169" value="" style="shape=partialRectangle;connectable=0;fillColor=none;top=0;left=0;bottom=0;right=0;editable=1;overflow=hidden;" vertex="1" parent="UU7fatPGStvRXGvjoXkg-168">
          <mxGeometry width="30" height="30" as="geometry" />
        </mxCell>
        <mxCell id="UU7fatPGStvRXGvjoXkg-170" value="pagamento_emprestimo" style="shape=partialRectangle;connectable=0;fillColor=none;top=0;left=0;bottom=0;right=0;align=left;spacingLeft=6;overflow=hidden;" vertex="1" parent="UU7fatPGStvRXGvjoXkg-168">
          <mxGeometry x="30" width="150" height="30" as="geometry" />
        </mxCell>
        <mxCell id="UU7fatPGStvRXGvjoXkg-177" value="" style="edgeStyle=entityRelationEdgeStyle;fontSize=12;html=1;endArrow=ERmany;startArrow=ERone;exitX=1;exitY=0.5;exitDx=0;exitDy=0;entryX=0;entryY=0.5;entryDx=0;entryDy=0;startFill=0;endFill=0;" edge="1" parent="1" source="UU7fatPGStvRXGvjoXkg-133" target="UU7fatPGStvRXGvjoXkg-146">
          <mxGeometry width="100" height="100" relative="1" as="geometry">
            <mxPoint x="310" y="710" as="sourcePoint" />
            <mxPoint x="410" y="610" as="targetPoint" />
          </mxGeometry>
        </mxCell>
        <mxCell id="UU7fatPGStvRXGvjoXkg-180" value="" style="fontSize=12;html=1;endArrow=ERone;entryX=0.5;entryY=1;entryDx=0;entryDy=0;startArrow=ERoneToMany;startFill=0;endFill=0;" edge="1" parent="1" source="UU7fatPGStvRXGvjoXkg-42" target="UU7fatPGStvRXGvjoXkg-1">
          <mxGeometry width="100" height="100" relative="1" as="geometry">
            <mxPoint x="860" y="820" as="sourcePoint" />
            <mxPoint x="860" y="670" as="targetPoint" />
          </mxGeometry>
        </mxCell>
        <mxCell id="UU7fatPGStvRXGvjoXkg-181" value="" style="edgeStyle=entityRelationEdgeStyle;fontSize=12;html=1;endArrow=ERoneToMany;exitX=1;exitY=0.5;exitDx=0;exitDy=0;entryX=0;entryY=0.5;entryDx=0;entryDy=0;startArrow=ERoneToMany;startFill=0;endFill=0;" edge="1" parent="1" source="UU7fatPGStvRXGvjoXkg-174" target="UU7fatPGStvRXGvjoXkg-49">
          <mxGeometry width="100" height="100" relative="1" as="geometry">
            <mxPoint x="640" y="830" as="sourcePoint" />
            <mxPoint x="750" y="730" as="targetPoint" />
          </mxGeometry>
        </mxCell>
        <mxCell id="UU7fatPGStvRXGvjoXkg-183" value="" style="fontSize=12;html=1;endArrow=ERmany;endFill=0;exitX=0.75;exitY=0;exitDx=0;exitDy=0;startArrow=ERone;startFill=0;entryX=0.75;entryY=1;entryDx=0;entryDy=0;" edge="1" parent="1" source="UU7fatPGStvRXGvjoXkg-87" target="UU7fatPGStvRXGvjoXkg-14">
          <mxGeometry width="100" height="100" relative="1" as="geometry">
            <mxPoint x="650" y="1040" as="sourcePoint" />
            <mxPoint x="250" y="830" as="targetPoint" />
          </mxGeometry>
        </mxCell>
      </root>
    </mxGraphModel>
  </diagram>
</mxfile>
